<?xml version="1.0" standalone="no"?>
<!DOCTYPE svg PUBLIC "-//W3C//DTD SVG 20010904//EN"
 "http://www.w3.org/TR/2001/REC-SVG-20010904/DTD/svg10.dtd">
<svg version="1.0" xmlns="http://www.w3.org/2000/svg"
 width="650.000000pt" height="650.000000pt" viewBox="0 0 650.000000 650.000000"
 preserveAspectRatio="xMidYMid meet">
<metadata>
Created by potrace 1.14, written by Peter Selinger 2001-2017
</metadata>
<g transform="translate(0.000000,650.000000) scale(0.100000,-0.100000)"
fill="#000000" stroke="none">
<path d="M2842 6159 c-12 -11 -27 -17 -32 -14 -6 3 -10 3 -10 -2 0 -4 -17 -8
-38 -9 -21 0 -47 -4 -58 -9 -10 -4 -22 -9 -26 -10 -5 -2 -9 -4 -10 -5 -2 -1
-68 -4 -148 -5 -147 -3 -221 -15 -247 -41 -14 -14 -19 -15 -81 -18 -19 -1 -37
-7 -40 -13 -4 -6 -33 -18 -65 -26 -61 -16 -107 -41 -107 -57 0 -6 -3 -9 -7 -8
-14 3 -63 -21 -63 -31 0 -5 -37 -19 -82 -31 -46 -11 -105 -32 -133 -44 -27
-13 -68 -29 -90 -36 -22 -7 -54 -27 -71 -45 -36 -38 -114 -70 -181 -74 -7 -1
-13 -7 -13 -14 0 -7 -9 -19 -21 -27 -11 -8 -31 -33 -45 -56 -32 -54 -62 -81
-109 -97 -29 -10 -43 -22 -50 -43 -5 -16 -15 -35 -22 -42 -6 -6 -15 -21 -18
-32 -3 -11 -11 -20 -16 -20 -5 0 -9 -9 -9 -19 0 -11 -16 -35 -35 -55 -19 -20
-31 -36 -27 -36 4 0 -2 -7 -13 -16 -11 -8 -18 -16 -15 -18 5 -4 -33 -58 -62
-87 -29 -30 -39 -59 -34 -92 4 -23 -3 -50 -23 -92 -16 -33 -34 -75 -41 -92 -7
-18 -27 -48 -46 -68 -18 -19 -43 -53 -55 -75 -12 -21 -25 -37 -29 -35 -4 3 -6
-9 -5 -26 2 -17 -8 -50 -21 -75 -18 -34 -21 -50 -14 -69 7 -17 6 -25 -1 -25
-6 0 -9 -6 -6 -14 3 -7 -1 -24 -10 -36 -8 -12 -17 -42 -19 -67 -3 -25 -11 -58
-19 -73 -8 -16 -14 -39 -14 -52 2 -41 -12 -103 -28 -120 -9 -10 -13 -18 -9
-18 4 0 3 -7 -2 -16 -6 -11 -5 -35 4 -67 7 -28 11 -54 8 -59 -3 -4 -2 -8 3 -8
12 0 10 -74 -2 -82 -6 -5 -6 -8 1 -8 13 0 3 -74 -14 -106 -6 -12 -8 -24 -4
-28 3 -4 2 -10 -3 -14 -11 -8 -45 -77 -50 -102 -2 -8 -13 -42 -25 -75 -11 -33
-23 -71 -25 -85 -4 -26 -12 -61 -15 -70 -1 -3 -2 -8 -1 -12 0 -5 -4 -8 -10 -8
-5 0 -8 -4 -5 -8 3 -5 -13 -29 -34 -53 -22 -24 -40 -51 -41 -59 -5 -69 -19
-118 -35 -124 -8 -3 -14 -11 -12 -18 1 -7 -4 -31 -12 -53 -8 -22 -15 -53 -16
-70 -1 -16 -3 -30 -4 -30 -1 0 -3 -16 -5 -36 -1 -20 -8 -46 -15 -59 -6 -12
-14 -38 -17 -58 -3 -21 -6 -44 -7 -52 -1 -8 -8 -28 -15 -45 -26 -63 -33 -138
-34 -405 0 -74 3 -153 7 -175 4 -22 10 -53 12 -70 3 -16 9 -48 14 -70 5 -22
11 -54 14 -71 9 -51 26 -94 107 -273 11 -24 18 -50 15 -58 -3 -8 -1 -11 4 -8
5 3 18 -12 29 -34 12 -22 25 -42 30 -45 5 -3 32 1 60 11 43 13 51 20 51 41 0
31 26 85 52 109 19 17 20 17 38 -5 10 -12 26 -46 36 -74 9 -29 35 -75 58 -103
23 -27 51 -73 64 -102 22 -53 144 -186 180 -197 11 -4 25 -19 32 -34 16 -33
16 -32 25 -59 4 -13 11 -20 16 -17 5 3 9 1 9 -4 0 -5 28 -15 62 -22 56 -12
118 -51 118 -74 0 -15 31 -37 57 -41 53 -7 94 -24 124 -49 17 -14 35 -26 41
-26 5 0 21 -9 35 -20 19 -14 41 -20 79 -20 30 0 54 -4 54 -10 0 -5 7 -10 15
-10 8 0 15 -5 15 -11 0 -6 18 -27 40 -48 22 -20 40 -42 40 -48 0 -15 16 -20
85 -22 33 -2 71 -4 85 -6 14 -2 36 -4 50 -4 20 -1 8 -13 -68 -69 -60 -44 -102
-84 -122 -115 -25 -40 -27 -47 -12 -48 9 -1 32 -3 50 -5 29 -3 126 17 272 56
22 6 69 35 106 65 36 30 70 55 73 55 4 0 7 -25 6 -56 -1 -47 4 -63 27 -96 23
-31 33 -38 51 -33 27 8 77 56 80 76 7 45 31 78 67 93 42 17 66 15 123 -10 28
-13 43 -15 60 -7 57 27 73 29 110 18 21 -6 35 -14 32 -17 -4 -3 8 -3 27 1 18
4 62 6 98 4 36 -2 72 -3 80 -3 8 1 33 0 55 -1 89 -3 133 -2 189 5 l59 7 -47
-55 c-39 -46 -45 -59 -37 -75 6 -10 24 -21 41 -23 25 -4 57 10 163 72 73 42
131 81 130 88 -3 12 62 19 120 13 12 -1 87 -142 116 -216 9 -24 18 -31 39 -30
39 1 52 12 52 45 0 16 3 31 8 33 13 9 4 165 -13 214 -2 7 0 13 6 13 6 0 7 5 4
10 -9 15 62 83 80 76 8 -3 17 -1 20 5 4 5 11 7 16 3 5 -3 24 7 42 22 41 35
125 72 202 91 33 8 71 21 84 30 21 14 166 62 234 77 15 4 26 10 23 14 -3 5 9
19 26 33 17 13 38 32 47 41 21 21 91 47 134 49 33 2 122 -29 112 -39 -3 -3 7
-18 22 -34 15 -15 23 -28 17 -28 -5 0 -3 -4 3 -8 7 -4 14 -17 16 -27 6 -35 38
-93 60 -108 12 -8 32 -25 45 -36 12 -12 22 -18 22 -14 0 4 7 -3 16 -15 8 -12
33 -31 55 -42 21 -11 39 -25 39 -30 0 -6 6 -10 13 -10 13 0 107 -83 107 -95 0
-11 87 -90 113 -102 12 -5 54 -25 92 -43 39 -18 93 -35 120 -37 28 -2 73 -16
100 -30 50 -26 52 -26 300 -28 239 -1 251 0 285 21 19 11 42 34 50 50 8 16 20
34 25 41 46 56 60 75 61 81 0 4 4 19 8 34 5 15 9 44 11 65 2 21 4 38 5 38 13
0 19 126 7 155 -5 14 -11 31 -13 38 -4 20 -25 42 -40 42 -8 0 -14 4 -14 9 0 4
-24 24 -54 44 -40 26 -61 34 -82 31 -62 -11 -92 -9 -171 8 -97 20 -153 38
-221 71 -27 13 -70 24 -96 25 -26 1 -64 9 -84 18 -20 9 -44 17 -52 19 -32 7
-106 39 -122 53 -10 8 -18 12 -18 8 0 -4 -7 0 -16 8 -8 9 -22 16 -31 16 -30 0
-89 42 -100 70 -7 18 -25 36 -46 46 -19 9 -41 27 -48 40 -7 13 -14 22 -17 20
-10 -11 -54 43 -55 68 -1 14 -5 26 -9 26 -24 0 33 96 63 105 9 3 20 13 23 21
3 9 2 12 -4 9 -15 -9 12 47 32 68 38 38 116 43 146 9 22 -24 70 -56 91 -59 9
-1 28 -17 43 -35 l27 -33 11 29 c6 16 8 31 5 34 -2 3 -1 10 4 16 5 6 12 27 15
46 7 34 13 60 16 70 1 3 2 8 1 13 0 4 4 7 11 7 6 0 9 3 5 6 -3 3 4 17 16 30
11 13 21 32 22 42 3 29 26 106 41 134 8 15 17 49 21 75 9 73 11 88 13 88 5 0
20 183 21 250 0 40 -6 75 -14 75 -5 0 -5 5 -2 10 3 5 3 15 -1 22 -4 7 -9 32
-11 57 -1 25 -5 52 -8 60 -4 9 -9 52 -11 95 -3 44 -8 84 -12 90 -3 6 -7 16 -9
21 -15 65 -37 131 -46 137 -7 4 -9 8 -5 8 3 0 0 20 -8 45 -7 25 -10 45 -6 45
4 0 2 4 -4 8 -15 10 -52 95 -59 133 -3 18 -10 38 -14 44 -4 5 -15 31 -25 57
-10 27 -23 51 -30 55 -11 7 -23 26 -73 108 -7 11 -19 34 -27 50 -8 17 -24 40
-36 53 -11 12 -18 22 -14 22 4 0 1 8 -7 18 -39 46 -61 128 -68 251 -1 8 -4 12
-7 8 -17 -17 -63 56 -70 111 -6 52 -9 65 -17 79 -4 6 -3 14 3 18 12 7 -15 65
-31 65 -6 0 -7 5 -4 10 3 6 2 10 -3 10 -16 0 -31 56 -26 92 4 27 -2 40 -31 73
-19 22 -38 48 -41 58 -3 9 -10 17 -16 17 -6 0 -9 3 -5 6 9 9 -31 74 -64 101
-35 30 -55 66 -68 122 -6 27 -5 41 1 41 6 0 -1 15 -14 33 -13 17 -30 46 -36
62 -7 17 -29 49 -50 72 -72 81 -84 96 -106 138 -23 42 -39 84 -37 96 0 4 -14
13 -32 20 -18 7 -42 24 -54 38 -24 27 -25 29 -27 61 0 11 -12 27 -25 37 -37
26 -58 49 -66 72 -3 12 -11 21 -16 21 -16 0 -74 53 -74 68 0 4 -4 13 -8 20 -5
6 -5 12 -2 12 10 0 -51 75 -87 107 -17 16 -38 37 -47 47 -43 51 -106 104 -139
116 -20 7 -46 23 -57 35 -26 29 -51 42 -100 49 -38 6 -84 45 -85 71 -1 24
-131 58 -158 42 -6 -5 -12 -4 -12 2 0 6 -5 11 -12 11 -6 0 -23 13 -37 29 -29
32 -51 41 -116 46 -25 2 -57 12 -72 22 -16 10 -41 25 -58 32 -16 7 -37 17 -46
22 -9 4 -20 5 -23 1 -4 -3 -12 -7 -19 -8 -7 -2 -23 -5 -36 -8 -13 -3 -39 2
-57 10 -18 9 -38 16 -46 18 -7 1 -19 5 -26 10 -7 4 -16 5 -19 2 -3 -3 -12 -1
-20 5 -7 6 -13 9 -13 6 0 -3 -17 3 -37 13 -30 14 -41 16 -52 7 -12 -10 -13 -9
-7 1 7 11 4 12 -11 3 -14 -7 -23 -7 -31 1 -7 7 -12 8 -12 4 0 -4 -15 2 -33 13
l-34 21 -21 -21z"/>
</g>
</svg>
